<svg xmlns="http://www.w3.org/2000/svg" width="100%" viewBox="0 0 200 200">
<path fill="none" d="M117.000000,201.000000 
	C78.024071,201.000000 39.548149,201.000000 1.036112,201.000000 
	C1.036112,134.399109 1.036112,67.798203 1.036112,1.098643 
	C67.559090,1.098643 134.118378,1.098643 200.838837,1.098643 
	C200.838837,67.666351 200.838837,134.333145 200.838837,201.000000 
	C173.131821,201.000000 145.315903,201.000000 117.000000,201.000000 
M61.682804,13.969723 
	C25.478283,24.004854 5.115746,60.246296 13.832886,95.460945 
	C22.015486,128.516220 55.059940,150.549133 88.782219,145.365784 
	C99.522575,143.714905 109.128853,139.583832 118.249374,133.608871 
	C137.091751,152.464828 155.773727,171.160233 173.977600,189.377228 
	C179.253113,184.100555 184.246002,179.106598 189.541595,173.809845 
	C171.210266,155.527557 152.576294,136.943436 133.900406,118.317520 
	C151.035141,90.086945 151.544525,62.000385 130.265076,35.999577 
	C112.854744,14.726360 89.443008,7.941758 61.682804,13.969723 
z"/>
<path fill="#fff"	d="M62.095032,13.925398 
	C89.443008,7.941758 112.854744,14.726360 130.265076,35.999577 
	C151.544525,62.000385 151.035141,90.086945 133.900406,118.317520 
	C152.576294,136.943436 171.210266,155.527557 189.541595,173.809845 
	C184.246002,179.106598 179.253113,184.100555 173.977600,189.377228 
	C155.773727,171.160233 137.091751,152.464828 118.249374,133.608871 
	C109.128853,139.583832 99.522575,143.714905 88.782219,145.365784 
	C55.059940,150.549133 22.015486,128.516220 13.832886,95.460945 
	C5.115746,60.246296 25.478283,24.004854 62.095032,13.925398 
M75.976967,124.465408 
	C102.869301,126.045013 125.710670,104.619308 124.455643,77.341141 
	C123.151993,49.005974 99.453133,30.211721 71.238380,34.094997 
	C48.360207,37.243790 30.437902,61.054405 33.744282,83.907661 
	C37.029976,106.617958 51.782116,121.044434 75.976967,124.465408 
z"/>
<path fill="none" d="M75.547615,124.416855 
	C51.782116,121.044434 37.029976,106.617958 33.744282,83.907661 
	C30.437902,61.054405 48.360207,37.243790 71.238380,34.094997 
	C99.453133,30.211721 123.151993,49.005974 124.455643,77.341141 
	C125.710670,104.619308 102.869301,126.045013 75.547615,124.416855 
z"/>
</svg>